<svg width="20" height="20" viewBox="0 0 20 20" fill="none" xmlns="http://www.w3.org/2000/svg">
<rect width="20" height="20" fill="#1E1E1E"/>
<g clip-path="url(#clip0_0_1)">
<rect width="1440" height="3529" transform="translate(-1321 -64)" fill="white"/>
<g filter="url(#filter0_d_0_1)">
<rect x="-1321" y="-64" width="1440" height="144" fill="white"/>
<g clip-path="url(#clip1_0_1)">
<mask id="mask0_0_1" style="mask-type:luminance" maskUnits="userSpaceOnUse" x="0" y="0" width="20" height="20">
<path d="M14.1667 2.5H5.83333C4.94928 2.5 4.10143 2.85119 3.47631 3.47631C2.85119 4.10143 2.5 4.94928 2.5 5.83333V14.1667C2.5 15.0507 2.85119 15.8986 3.47631 16.5237C4.10143 17.1488 4.94928 17.5 5.83333 17.5H14.1667C15.0507 17.5 15.8986 17.1488 16.5237 16.5237C17.1488 15.8986 17.5 15.0507 17.5 14.1667V5.83333C17.5 4.94928 17.1488 4.10143 16.5237 3.47631C15.8986 2.85119 15.0507 2.5 14.1667 2.5Z" fill="white" stroke="white" stroke-width="4" stroke-linejoin="round"/>
<path d="M10 12C10.5304 12 11.0391 11.7893 11.4142 11.4142C11.7893 11.0391 12 10.5304 12 10C12 9.46957 11.7893 8.96086 11.4142 8.58579C11.0391 8.21071 10.5304 8 10 8C9.46957 8 8.96086 8.21071 8.58579 8.58579C8.21071 8.96086 8 9.46957 8 10C8 10.5304 8.21071 11.0391 8.58579 11.4142C8.96086 11.7893 9.46957 12 10 12Z" fill="black" stroke="black" stroke-width="4" stroke-linejoin="round"/>
<path d="M14.5833 6.25001C14.8043 6.25001 15.0163 6.16221 15.1726 6.00593C15.3289 5.84965 15.4167 5.63769 15.4167 5.41668C15.4167 5.19566 15.3289 4.9837 15.1726 4.82742C15.0163 4.67114 14.8043 4.58334 14.5833 4.58334C14.3623 4.58334 14.1504 4.67114 13.9941 4.82742C13.8378 4.9837 13.75 5.19566 13.75 5.41668C13.75 5.63769 13.8378 5.84965 13.9941 6.00593C14.1504 6.16221 14.3623 6.25001 14.5833 6.25001Z" fill="black"/>
</mask>
<g mask="url(#mask0_0_1)">
<path d="M0 0H20V20H0V0Z" fill="#47110E"/>
</g>
</g>
</g>
</g>
<defs>
<filter id="filter0_d_0_1" x="-1341" y="-79" width="1480" height="184" filterUnits="userSpaceOnUse" color-interpolation-filters="sRGB">
<feFlood flood-opacity="0" result="BackgroundImageFix"/>
<feColorMatrix in="SourceAlpha" type="matrix" values="0 0 0 0 0 0 0 0 0 0 0 0 0 0 0 0 0 0 127 0" result="hardAlpha"/>
<feOffset dy="5"/>
<feGaussianBlur stdDeviation="10"/>
<feComposite in2="hardAlpha" operator="out"/>
<feColorMatrix type="matrix" values="0 0 0 0 0 0 0 0 0 0 0 0 0 0 0 0 0 0 0.15 0"/>
<feBlend mode="normal" in2="BackgroundImageFix" result="effect1_dropShadow_0_1"/>
<feBlend mode="normal" in="SourceGraphic" in2="effect1_dropShadow_0_1" result="shape"/>
</filter>
<clipPath id="clip0_0_1">
<rect width="1440" height="3529" fill="white" transform="translate(-1321 -64)"/>
</clipPath>
<clipPath id="clip1_0_1">
<rect width="20" height="20" fill="white"/>
</clipPath>
</defs>
</svg>
