<svg width="52" height="50" viewBox="0 0 52 50" fill="none" xmlns="http://www.w3.org/2000/svg">
<g id="Logo" clip-path="url(#clip0_101_48)">
<path id="Vector" d="M51.2337 26.8748H42.07C34.0653 26.8748 27.5765 33.1988 27.5765 40.9998V49.9305C40.21 49.0175 50.2969 39.1871 51.2337 26.8748Z" fill="white"/>
<path id="Vector_2" d="M23.7287 49.9305V40.9998C23.7287 33.1988 17.2397 26.8748 9.23513 26.8748H0.0714111C1.00814 39.1871 11.095 49.0175 23.7287 49.9305Z" fill="white"/>
<path id="Vector_3" d="M51.2337 23.1249C50.2969 10.8125 40.21 0.98201 27.5765 0.0690918V8.99983C27.5765 16.8009 34.0653 23.1249 42.07 23.1249H51.2337Z" fill="white"/>
<path id="Vector_4" d="M23.7287 0.0690918C11.095 0.98201 1.00814 10.8125 0.0714111 23.1249H9.23513C17.2397 23.1249 23.7287 16.8009 23.7287 8.99983V0.0690918Z" fill="white"/>
<path id="Vector_5" d="M17.4217 24.9997C20.9777 23.268 23.8758 20.4437 25.6524 16.978C27.4292 20.4437 30.3272 23.268 33.8833 24.9997C30.3272 26.7311 27.4292 29.5555 25.6524 33.0211C23.8758 29.5555 20.9777 26.7311 17.4217 24.9997Z" fill="#E6C944"/>
</g>
<defs>
<clipPath id="clip0_101_48">
<rect width="51.3043" height="50" fill="white"/>
</clipPath>
</defs>
</svg>
